<?xml version="1.0" encoding="UTF-8"?>
<svg version="1.1" xmlns="http://www.w3.org/2000/svg" width="612" height="408">
<path d="M0 0 C1.40021645 -0.0049926 1.40021645 -0.0049926 2.82872009 -0.01008606 C4.81687935 -0.01516124 6.80504716 -0.0174942 8.79321289 -0.01733398 C11.77570648 -0.01948499 14.75780809 -0.03753364 17.74023438 -0.05664062 C29.24042689 -0.09083037 40.40273986 0.45643705 51.77734375 2.16796875 C52.65253662 2.29905029 53.52772949 2.43013184 54.42944336 2.56518555 C62.37563584 3.8507181 70.15672847 5.56607296 77.77734375 8.16796875 C78.38126953 8.3676123 78.98519531 8.56725586 79.60742188 8.77294922 C93.22607292 13.28519236 105.98044765 18.88245865 118.5078125 25.90625 C120.57236775 27.05401479 122.65621342 28.12934631 124.77734375 29.16796875 C124.77734375 29.82796875 124.77734375 30.48796875 124.77734375 31.16796875 C125.31875 31.26207031 125.86015625 31.35617188 126.41796875 31.453125 C129.47505463 32.37936128 131.8350338 33.89250435 134.52734375 35.60546875 C135.5121875 36.22292969 136.49703125 36.84039062 137.51171875 37.4765625 C138.259375 38.03472656 139.00703125 38.59289063 139.77734375 39.16796875 C139.77734375 39.82796875 139.77734375 40.48796875 139.77734375 41.16796875 C140.29296875 41.39484375 140.80859375 41.62171875 141.33984375 41.85546875 C144.6728138 43.65014493 147.92438046 45.6676189 150.77734375 48.16796875 C150.77734375 48.82796875 150.77734375 49.48796875 150.77734375 50.16796875 C151.64020996 50.54405273 151.64020996 50.54405273 152.52050781 50.92773438 C155.08175571 52.33525702 156.81791767 53.949669 158.88671875 56.01171875 C159.64082031 56.76324219 160.39492188 57.51476563 161.171875 58.2890625 C161.94917969 59.07410156 162.72648437 59.85914063 163.52734375 60.66796875 C164.71650391 61.84552734 164.71650391 61.84552734 165.9296875 63.046875 C166.67863281 63.79839844 167.42757813 64.54992187 168.19921875 65.32421875 C168.8859668 66.01322266 169.57271484 66.70222656 170.28027344 67.41210938 C171.77734375 69.16796875 171.77734375 69.16796875 171.77734375 71.16796875 C172.43734375 71.16796875 173.09734375 71.16796875 173.77734375 71.16796875 C173.77734375 71.82796875 173.77734375 72.48796875 173.77734375 73.16796875 C174.43734375 73.16796875 175.09734375 73.16796875 175.77734375 73.16796875 C177.06640625 74.62890625 177.06640625 74.62890625 178.40234375 76.54296875 C178.84835937 77.16945313 179.294375 77.7959375 179.75390625 78.44140625 C180.77734375 80.16796875 180.77734375 80.16796875 180.77734375 82.16796875 C181.43734375 82.16796875 182.09734375 82.16796875 182.77734375 82.16796875 C184.2292874 84.04849817 185.5909898 85.99933724 186.90234375 87.98046875 C187.62679688 89.05941406 188.35125 90.13835937 189.09765625 91.25 C190.77734375 94.16796875 190.77734375 94.16796875 190.77734375 97.16796875 C191.43734375 97.16796875 192.09734375 97.16796875 192.77734375 97.16796875 C194.81045181 100.81713706 196.80026391 104.48816155 198.77734375 108.16796875 C199.34195312 109.20566406 199.9065625 110.24335937 200.48828125 111.3125 C205.33524302 120.55681849 208.75233863 130.06490682 212.03125 139.95458984 C212.64400882 141.77241427 213.29872574 143.57604314 213.96484375 145.375 C216.27719474 151.68880212 217.68376093 158.08177769 218.96484375 164.66796875 C219.13201904 165.52253662 219.29919434 166.37710449 219.47143555 167.25756836 C221.53968597 178.45979231 221.94271661 189.60588609 221.90771484 200.97607422 C221.90236809 203.03360419 221.90768942 205.09091421 221.9140625 207.1484375 C221.92198642 219.20062956 221.5319125 231.15732188 219.02734375 242.98046875 C218.85251465 243.82448242 218.67768555 244.66849609 218.49755859 245.53808594 C216.71213353 253.89306011 214.45305769 262.05653705 211.77734375 270.16796875 C211.56384277 270.8218457 211.3503418 271.47572266 211.13037109 272.14941406 C203.88605625 293.90940982 191.84034833 315.75887837 176.67578125 332.98046875 C174.7489603 335.01765945 174.7489603 335.01765945 173.77734375 337.16796875 C173.11734375 337.16796875 172.45734375 337.16796875 171.77734375 337.16796875 C171.52662109 337.74321289 171.27589844 338.31845703 171.01757812 338.91113281 C169.61005548 341.47238071 167.9956435 343.20854267 165.93359375 345.27734375 C165.18207031 346.03144531 164.43054688 346.78554688 163.65625 347.5625 C162.87121094 348.33980469 162.08617187 349.11710937 161.27734375 349.91796875 C160.09978516 351.10712891 160.09978516 351.10712891 158.8984375 352.3203125 C158.14691406 353.06925781 157.39539063 353.81820313 156.62109375 354.58984375 C155.93208984 355.2765918 155.24308594 355.96333984 154.53320312 356.67089844 C152.77734375 358.16796875 152.77734375 358.16796875 150.77734375 358.16796875 C150.77734375 358.82796875 150.77734375 359.48796875 150.77734375 360.16796875 C148.87567712 361.82172335 146.9772484 363.3466565 144.96484375 364.85546875 C144.37243896 365.30462646 143.78003418 365.75378418 143.16967773 366.21655273 C138.79456766 369.49539377 134.30607729 372.52047888 129.6484375 375.38671875 C127.5493346 376.68901932 125.48962363 378.01434278 123.4375 379.38671875 C110.43619907 388.04760489 96.75845 393.43921082 82.00683594 398.40576172 C80.18358785 399.02908416 78.37291277 399.68907757 76.56640625 400.359375 C70.25243918 402.66605351 63.86200518 404.07468346 57.27734375 405.35546875 C56.42277588 405.52264404 55.56820801 405.68981934 54.68774414 405.86206055 C43.25044093 407.97371331 31.82642798 408.35456287 20.22460938 408.35327148 C18.04407019 408.35545202 15.86404376 408.37367107 13.68359375 408.39257812 C3.89642885 408.43151426 -5.54548223 407.59356906 -15.22265625 406.16796875 C-16.46426514 406.00325073 -16.46426514 406.00325073 -17.73095703 405.83520508 C-30.08132676 404.17989395 -41.55013489 400.42342847 -53.22265625 396.16796875 C-53.92165039 395.91644043 -54.62064453 395.66491211 -55.34082031 395.40576172 C-69.93332496 390.09508282 -83.34414519 382.65873791 -96.26953125 374.11328125 C-98.17694244 372.85681197 -100.12456278 371.65851344 -102.11328125 370.53515625 C-102.809375 370.08398438 -103.50546875 369.6328125 -104.22265625 369.16796875 C-104.22265625 368.50796875 -104.22265625 367.84796875 -104.22265625 367.16796875 C-104.99609375 366.82765625 -104.99609375 366.82765625 -105.78515625 366.48046875 C-109.1181263 364.68579257 -112.36969296 362.6683186 -115.22265625 360.16796875 C-115.22265625 359.50796875 -115.22265625 358.84796875 -115.22265625 358.16796875 C-115.79790039 357.91724609 -116.37314453 357.66652344 -116.96582031 357.40820312 C-119.52706821 356.00068048 -121.26323017 354.3862685 -123.33203125 352.32421875 C-124.08613281 351.57269531 -124.84023437 350.82117188 -125.6171875 350.046875 C-126.78314453 348.86931641 -126.78314453 348.86931641 -127.97265625 347.66796875 C-129.16181641 346.49041016 -129.16181641 346.49041016 -130.375 345.2890625 C-131.12394531 344.53753906 -131.87289062 343.78601563 -132.64453125 343.01171875 C-133.3312793 342.32271484 -134.01802734 341.63371094 -134.72558594 340.92382812 C-136.22265625 339.16796875 -136.22265625 339.16796875 -136.22265625 337.16796875 C-136.88265625 337.16796875 -137.54265625 337.16796875 -138.22265625 337.16796875 C-139.69970703 335.55419922 -139.69970703 335.55419922 -141.41796875 333.28515625 C-142.04791748 332.45395264 -142.67786621 331.62274902 -143.3269043 330.76635742 C-143.99375244 329.86763916 -144.66060059 328.9689209 -145.34765625 328.04296875 C-146.02546143 327.13458252 -146.7032666 326.22619629 -147.40161133 325.2902832 C-152.63283019 318.1808692 -157.09219142 310.95884551 -161.22265625 303.16796875 C-162.54337218 300.82729398 -163.8845815 298.49880863 -165.22265625 296.16796875 C-170.21959798 287.41937991 -173.24367212 277.95451574 -176.44433594 268.44580078 C-177.0741839 266.60248789 -177.74055246 264.77167994 -178.41796875 262.9453125 C-180.72391547 256.63573388 -182.13021662 250.24828253 -183.41015625 243.66796875 C-183.57733154 242.81340088 -183.74450684 241.95883301 -183.91674805 241.07836914 C-185.98499847 229.87614519 -186.38802911 218.73005141 -186.35302734 207.35986328 C-186.34768059 205.30233331 -186.35300192 203.24502329 -186.359375 201.1875 C-186.36714826 189.08977362 -185.91415333 177.06868728 -183.59765625 165.16796875 C-183.4287085 164.29350098 -183.25976074 163.4190332 -183.08569336 162.51806641 C-180.18014482 148.31456424 -175.80646771 134.10856369 -169.22265625 121.16796875 C-168.64268899 119.96573073 -168.06472428 118.76252552 -167.48828125 117.55859375 C-160.47890986 103.05224253 -152.71515685 89.40194862 -142.47265625 76.92578125 C-140.1718243 74.1959245 -140.1718243 74.1959245 -138.22265625 71.16796875 C-137.56265625 71.16796875 -136.90265625 71.16796875 -136.22265625 71.16796875 C-135.97193359 70.59272461 -135.72121094 70.01748047 -135.46289062 69.42480469 C-134.05536798 66.86355679 -132.440956 65.12739483 -130.37890625 63.05859375 C-129.62738281 62.30449219 -128.87585938 61.55039062 -128.1015625 60.7734375 C-127.31652344 59.99613281 -126.53148437 59.21882813 -125.72265625 58.41796875 C-124.93761719 57.62519531 -124.15257812 56.83242188 -123.34375 56.015625 C-122.59222656 55.26667969 -121.84070313 54.51773438 -121.06640625 53.74609375 C-120.37740234 53.0593457 -119.68839844 52.37259766 -118.97851562 51.66503906 C-117.22265625 50.16796875 -117.22265625 50.16796875 -115.22265625 50.16796875 C-115.22265625 49.50796875 -115.22265625 48.84796875 -115.22265625 48.16796875 C-113.32421875 46.44140625 -113.32421875 46.44140625 -110.84765625 44.54296875 C-110.03554687 43.91132812 -109.2234375 43.2796875 -108.38671875 42.62890625 C-106.22265625 41.16796875 -106.22265625 41.16796875 -104.22265625 41.16796875 C-104.22265625 40.50796875 -104.22265625 39.84796875 -104.22265625 39.16796875 C-102.39820196 37.90418563 -100.50858686 36.73424041 -98.59765625 35.60546875 C-97.38956045 34.88720419 -96.18256321 34.16708929 -94.9765625 33.4453125 C-94.35152832 33.07132324 -93.72649414 32.69733398 -93.08251953 32.31201172 C-91.31377248 31.22401636 -89.59152794 30.0901312 -87.875 28.921875 C-66.16224359 14.18776218 -39.32959917 5.33069749 -13.48046875 1.5625 C-4.57102523 0.00565952 -4.57102523 0.00565952 0 0 Z " fill="#C12260" transform="translate(288.22265625,-0.16796875)"/>
<path d="M0 0 C0.19634033 0.59949463 0.39268066 1.19898926 0.5949707 1.81665039 C1.49756651 4.56634498 2.40499513 7.31442187 3.3125 10.0625 C3.62123047 11.00544922 3.92996094 11.94839844 4.24804688 12.91992188 C5.58300218 16.95289213 6.91627695 20.94631017 8.62109375 24.83984375 C9.87392185 27.71105603 10.85711028 30.50123831 11.75 33.5 C12.0903125 34.63695312 12.430625 35.77390625 12.78125 36.9453125 C12.97203125 37.58500977 13.1628125 38.22470703 13.359375 38.88378906 C14.0657894 41.21732565 14.79731563 43.54216257 15.53125 45.8671875 C20.25951329 60.95566807 24.27218413 76.18922041 28.1237793 91.52001953 C28.68314196 93.74157301 29.24904968 95.96149568 29.82348633 98.17919922 C31.57509934 104.99452605 32.9774143 111.81908111 34.1875 118.75 C34.36474609 119.74515625 34.54199219 120.7403125 34.72460938 121.765625 C35.15345829 124.17645135 35.57855348 126.58787067 36 129 C30.22396411 132.07745065 24.60537195 134.28619982 18.3125 136.0625 C17.40838379 136.31926514 16.50426758 136.57603027 15.57275391 136.84057617 C5.83614074 139.48875331 -3.98930487 140.87323566 -14 142 C-15.06734375 142.13148438 -16.1346875 142.26296875 -17.234375 142.3984375 C-49.67348888 145.94946476 -82.71048416 138.26607323 -111.27490234 122.92578125 C-112.86898899 122.07030764 -114.47504508 121.23723905 -116.08203125 120.40625 C-122.33248105 117.11930017 -128.58072605 113.56112428 -134 109 C-134 108.34 -134 107.68 -134 107 C-134.66 106.67 -135.32 106.34 -136 106 C-134.73252511 103.74804937 -133.46117132 101.49844253 -132.1875 99.25 C-131.83107422 98.61578125 -131.47464844 97.9815625 -131.10742188 97.328125 C-127.28128342 90.58850497 -127.28128342 90.58850497 -125 88 C-124.34 88 -123.68 88 -123 88 C-122.79375 87.34 -122.5875 86.68 -122.375 86 C-120.50875748 81.92819814 -118.02438473 78.31203002 -115 75 C-114.34 75 -113.68 75 -113 75 C-112.773125 74.443125 -112.54625 73.88625 -112.3125 73.3125 C-110.62971908 70.34760028 -108.43891488 68.383485 -106 66 C-105.0538278 64.88228384 -104.11675625 63.75681892 -103.1875 62.625 C-99.80247761 58.64161507 -95.99087479 55.3610749 -92 52 C-90.88846323 51.03875361 -89.7778557 50.07643209 -88.66796875 49.11328125 C-87.48728129 48.09600341 -86.30629101 47.07907693 -85.125 46.0625 C-84.55322021 45.56524414 -83.98144043 45.06798828 -83.39233398 44.55566406 C-79.22767847 41 -79.22767847 41 -77 41 C-77 40.34 -77 39.68 -77 39 C-74.875 37.484375 -74.875 37.484375 -72 35.75 C-68.52964369 33.61201263 -65.19878233 31.46320521 -62 28.9375 C-57.30458196 25.35736089 -52.22255483 22.73063346 -47 20 C-45.3835424 19.12996849 -43.76771014 18.25877462 -42.15234375 17.38671875 C-9.73778871 0 -9.73778871 0 0 0 Z " fill="#EA4B88" transform="translate(337,234)"/>
<path d="M0 0 C0.42539062 0.86818359 0.42539062 0.86818359 0.859375 1.75390625 C1.92813286 3.85848081 3.07239443 5.89239166 4.25 7.9375 C6.42708664 11.8549523 8.43760087 15.8334953 10.375 19.875 C10.89835938 20.96554688 11.42171875 22.05609375 11.9609375 23.1796875 C13 26 13 26 12 29 C10.36108398 29.82788086 10.36108398 29.82788086 8.24609375 30.46484375 C7.47330078 30.70783203 6.70050781 30.95082031 5.90429688 31.20117188 C5.09025391 31.44416016 4.27621094 31.68714844 3.4375 31.9375 C-1.99678459 33.58870359 -7.02042107 35.38898351 -12.05175781 38.03613281 C-13.99770166 38.99886293 -15.93293404 39.73914255 -17.98046875 40.45703125 C-23.15450861 42.32504809 -27.72267441 45.15358126 -32.43945312 47.94726562 C-37.69777555 51 -37.69777555 51 -41 51 C-41 51.66 -41 52.32 -41 53 C-42.32 53.33 -43.64 53.66 -45 54 C-45 54.66 -45 55.32 -45 56 C-45.48726562 56.24492187 -45.97453125 56.48984375 -46.4765625 56.7421875 C-51.66437404 59.47757904 -56.47460264 62.61056205 -61.25 66 C-62.13486084 66.62237549 -62.13486084 66.62237549 -63.03759766 67.25732422 C-66.70249821 69.89286304 -69.85918537 72.73731954 -73 76 C-76.62068966 79 -76.62068966 79 -79 79 C-79 79.66 -79 80.32 -79 81 C-83.47058824 85 -83.47058824 85 -86 85 C-86.25450928 85.58120605 -86.50901855 86.16241211 -86.77124023 86.76123047 C-88.13058676 89.23792581 -89.63911097 90.85134445 -91.66015625 92.8203125 C-92.7265332 93.87025391 -92.7265332 93.87025391 -93.81445312 94.94140625 C-94.55630859 95.66199219 -95.29816406 96.38257813 -96.0625 97.125 C-97.53473193 98.56287561 -99.00489156 100.00287708 -100.47265625 101.4453125 C-101.12500244 102.07969238 -101.77734863 102.71407227 -102.44946289 103.36767578 C-104.08886 104.93459167 -104.08886 104.93459167 -105 107 C-105.66 107 -106.32 107 -107 107 C-107 107.66 -107 108.32 -107 109 C-107.66 109 -108.32 109 -109 109 C-109.20625 109.680625 -109.4125 110.36125 -109.625 111.0625 C-111.05999384 114.12816865 -112.89124989 116.25582395 -115.14453125 118.75390625 C-118.01010444 122.22275801 -120.46074331 125.97302017 -122.92797852 129.73242188 C-123.9036225 131.18854338 -124.94665883 132.59905625 -126 134 C-126.66 134 -127.32 134 -128 134 C-128.061875 134.556875 -128.12375 135.11375 -128.1875 135.6875 C-129.33373872 138.94987173 -131.49390197 140.68667874 -134 143 C-135.17249353 141.54634731 -136.33783816 140.08692581 -137.5 138.625 C-138.47453125 137.40683594 -138.47453125 137.40683594 -139.46875 136.1640625 C-141 134 -141 134 -141 132 C-141.66 132 -142.32 132 -143 132 C-144.7265625 129.6640625 -144.7265625 129.6640625 -146.625 126.625 C-147.25664062 125.62726563 -147.88828125 124.62953125 -148.5390625 123.6015625 C-150 121 -150 121 -150 119 C-150.66 119 -151.32 119 -152 119 C-165.97643675 91.40962773 -176.15341765 64.45901315 -176.0234375 33.10546875 C-176.02174561 32.32312866 -176.02005371 31.54078857 -176.01831055 30.73474121 C-176.0139312 28.82315608 -176.00720695 26.91157656 -176 25 C-175.40770096 24.97938507 -174.81540192 24.95877014 -174.20515442 24.93753052 C-167.9244874 24.71767771 -161.6441872 24.48888643 -155.36401367 24.25537109 C-153.03401518 24.16984011 -150.7039375 24.08643446 -148.3737793 24.00537109 C-129.1462162 23.33420858 -110.08896111 22.14614549 -91.0625 19.1875 C-89.94681641 19.01718262 -88.83113281 18.84686523 -87.68164062 18.67138672 C-84.11972503 18.12267787 -80.55979712 17.56227575 -77 17 C-75.78038574 16.81034668 -74.56077148 16.62069336 -73.30419922 16.42529297 C-48.431448 12.53760835 -23.98959001 7.71387045 0 0 Z " fill="#EA4B88" transform="translate(310,175)"/>
<path d="M0 0 C1.76012966 2.36368763 3.39456615 4.7220123 5 7.1875 C5.45117188 7.86103516 5.90234375 8.53457031 6.3671875 9.22851562 C8.66746127 12.71635678 10.63930786 16.01842924 12 20 C12.66 20 13.32 20 14 20 C14.495 21.98 14.495 21.98 15 24 C15.66 24 16.32 24 17 24 C18.4453125 26.203125 18.4453125 26.203125 20.125 29.25 C23.32137478 34.91599487 26.79347911 40.24787681 30.49609375 45.6015625 C32 48 32 48 32 50 C32.66 50 33.32 50 34 50 C35.5078125 52.08203125 35.5078125 52.08203125 37.125 54.8125 C37.66382813 55.70582031 38.20265625 56.59914062 38.7578125 57.51953125 C40 60 40 60 40 63 C40.66 63 41.32 63 42 63 C43.7265625 65.5546875 43.7265625 65.5546875 45.625 68.875 C46.25664062 69.96554688 46.88828125 71.05609375 47.5390625 72.1796875 C49 75 49 75 49 77 C49.66 77 50.32 77 51 77 C51.30292969 77.6290625 51.60585938 78.258125 51.91796875 78.90625 C54.36438308 83.90446265 56.91498102 88.63089563 60.08203125 93.2109375 C61 95 61 95 61 99 C41.40574377 103.47180601 21.85941286 107.85514167 2 111 C0.31496819 111.27651638 -1.3699292 111.55385327 -3.0546875 111.83203125 C-13.00592017 113.46002059 -22.97206265 114.93035335 -33 116 C-33.79776855 116.08636719 -34.59553711 116.17273438 -35.41748047 116.26171875 C-55.22491841 118.33210423 -75.10434896 118.61546746 -95 119 C-93.97653252 106.47146973 -89.40724132 95.25127928 -84 84 C-83.04840717 81.96646622 -82.10206491 79.93053128 -81.15576172 77.89453125 C-79.7757896 74.92720845 -78.38783677 71.96365143 -77 69 C-76.34 69 -75.68 69 -75 69 C-74.9175 68.484375 -74.835 67.96875 -74.75 67.4375 C-73.67859775 63.95544268 -71.86476395 61.12799115 -70 58 C-69.34 58 -68.68 58 -68 58 C-67.71125 57.236875 -67.4225 56.47375 -67.125 55.6875 C-66 53 -66 53 -64 50 C-63.34 50 -62.68 50 -62 50 C-61.7525 49.278125 -61.505 48.55625 -61.25 47.8125 C-59.37865818 43.60198092 -56.49137663 40.01527982 -53 37 C-52.34 37 -51.68 37 -51 37 C-51 36.34 -51 35.68 -51 35 C-50.34 35 -49.68 35 -49 35 C-49 34.34 -49 33.68 -49 33 C-48.34 33 -47.68 33 -47 33 C-47 32.34 -47 31.68 -47 31 C-46.34 31 -45.68 31 -45 31 C-45 30.34 -45 29.68 -45 29 C-43.26608049 27.39365985 -41.461909 25.8624713 -39.625 24.375 C-38.62726563 23.55773437 -37.62953125 22.74046875 -36.6015625 21.8984375 C-34 20 -34 20 -32 20 C-32 19.34 -32 18.68 -32 18 C-29.76171875 16.30078125 -29.76171875 16.30078125 -26.6875 14.3125 C-25.0478125 13.24902344 -25.0478125 13.24902344 -23.375 12.1640625 C-22.81167969 11.80344727 -22.24835938 11.44283203 -21.66796875 11.07128906 C-20.104395 10.06704995 -18.55176715 9.04582576 -17 8.0234375 C-4.7087766 0 -4.7087766 0 0 0 Z " fill="#EA4B88" transform="translate(233,49)"/>
<path d="M0 0 C0.65516602 0.10183594 1.31033203 0.20367187 1.98535156 0.30859375 C21.93172275 3.42912695 39.86663422 11.40399191 58 20 C58 20.66 58 21.32 58 22 C58.515625 22.0825 59.03125 22.165 59.5625 22.25 C63.04455732 23.32140225 65.87200885 25.13523605 69 27 C69 27.66 69 28.32 69 29 C69.763125 29.28875 70.52625 29.5775 71.3125 29.875 C74 31 74 31 77 33 C77 33.66 77 34.32 77 35 C77.763125 35.268125 78.52625 35.53625 79.3125 35.8125 C81.91245703 36.96131822 83.38885423 37.67278944 85 40 C84.6875 42.1875 84.6875 42.1875 84 44 C83.34 44 82.68 44 82 44 C81.6596875 44.804375 81.6596875 44.804375 81.3125 45.625 C77.79814865 51.98430244 72.46599083 56.37254186 67 61 C66.34 61.58652344 65.68 62.17304687 65 62.77734375 C64.071875 63.59912109 64.071875 63.59912109 63.125 64.4375 C62.29355469 65.17806641 62.29355469 65.17806641 61.4453125 65.93359375 C60 67 60 67 58 67 C58 67.66 58 68.32 58 69 C55.76171875 70.69921875 55.76171875 70.69921875 52.6875 72.6875 C52.13771484 73.04416748 51.58792969 73.40083496 51.02148438 73.76831055 C49.35060295 74.85010532 47.67533182 75.92511025 46 77 C45.16082031 77.55945313 44.32164062 78.11890625 43.45703125 78.6953125 C12.10534055 99.33060654 12.10534055 99.33060654 -4 102 C-4 101.01 -4 100.02 -4 99 C-4.66 99 -5.32 99 -6 99 C-6.82011312 97.44148245 -7.63076213 95.87798284 -8.4375 94.3125 C-8.88996094 93.44238281 -9.34242188 92.57226562 -9.80859375 91.67578125 C-10.95991928 89.09001736 -11.56320753 86.78643472 -12 84 C-12.66 84 -13.32 84 -14 84 C-14.66 82.02 -15.32 80.04 -16 78 C-16.66 78 -17.32 78 -18 78 C-18.33 76.35 -18.66 74.7 -19 73 C-19.66 73 -20.32 73 -21 73 C-21.61488281 71.89140625 -22.22976563 70.7828125 -22.86328125 69.640625 C-23.67953471 68.17699811 -24.49594944 66.71346116 -25.3125 65.25 C-25.71662109 64.52039063 -26.12074219 63.79078125 -26.53710938 63.0390625 C-28.17292917 60.11320596 -29.74453168 57.33171921 -31.79296875 54.671875 C-33 53 -33 53 -33 50 C-33.66 50 -34.32 50 -35 50 C-35.33 48.68 -35.66 47.36 -36 46 C-36.66 46 -37.32 46 -38 46 C-39.234375 44.078125 -39.234375 44.078125 -40.75 41.25 C-44.80314616 34.04248637 -49.54988506 27.38856656 -54.37597656 20.68066406 C-54.97249023 19.8450293 -55.56900391 19.00939453 -56.18359375 18.1484375 C-56.72556396 17.39739746 -57.26753418 16.64635742 -57.82592773 15.87255859 C-59 14 -59 14 -59 12 C-59.66 12 -60.32 12 -61 12 C-62.2890625 10.3203125 -62.2890625 10.3203125 -63.625 8.125 C-64.07101562 7.40570313 -64.51703125 6.68640625 -64.9765625 5.9453125 C-66 4 -66 4 -66 2 C-44.19798056 -2.73568455 -22.07525289 -3.67155973 0 0 Z " fill="#EA4B88" transform="translate(334,34)"/>
<path d="M0 0 C0.66 0 1.32 0 2 0 C2 0.66 2 1.32 2 2 C2.66 2 3.32 2 4 2 C8 7.41176471 8 7.41176471 8 10 C8.66 10 9.32 10 10 10 C30.3856587 34.72919393 39.53872645 72.75386613 39 104 C34.14070222 103.52068151 29.33143812 102.90927855 24.50941467 102.13641357 C2.53782354 98.64689487 -19.06570133 97.53610051 -41.3125 97.625 C-43.25367706 97.63175247 -43.25367706 97.63175247 -45.23406982 97.63864136 C-48.96482417 97.65738247 -52.6951832 97.68789714 -56.42578125 97.7265625 C-57.53271835 97.73729294 -58.63965546 97.74802338 -59.78013611 97.75907898 C-66.56213862 97.86123936 -73.25534535 98.2818626 -80 99 C-80.31751221 98.27409668 -80.63502441 97.54819336 -80.9621582 96.80029297 C-82.4106652 93.49115589 -83.86155965 90.18307081 -85.3125 86.875 C-85.81201172 85.73289062 -86.31152344 84.59078125 -86.82617188 83.4140625 C-87.31279297 82.30546875 -87.79941406 81.196875 -88.30078125 80.0546875 C-88.74591064 79.03874512 -89.19104004 78.02280273 -89.6496582 76.97607422 C-90.6030945 74.87475647 -91.61560769 72.79976765 -92.66870117 70.74658203 C-94 68 -94 68 -94 66 C-92.27716797 65.25556641 -92.27716797 65.25556641 -90.51953125 64.49609375 C-81.94890601 60.75806871 -73.62669111 56.89751931 -65.50390625 52.25 C-63 51 -63 51 -60 51 C-60 50.34 -60 49.68 -60 49 C-57.525 48.505 -57.525 48.505 -55 48 C-55 47.34 -55 46.68 -55 46 C-53.19217025 44.82149686 -51.32570852 43.73238594 -49.4375 42.6875 C-45.77980513 40.62329912 -42.24700031 38.56823272 -38.875 36.0625 C-36 34 -36 34 -34 34 C-34 33.34 -34 32.68 -34 32 C-30.53846154 29 -30.53846154 29 -28 29 C-28 28.34 -28 27.68 -28 27 C-26.51143934 25.66735577 -24.95696355 24.40780521 -23.375 23.1875 C-22.46621094 22.47722656 -21.55742187 21.76695313 -20.62109375 21.03515625 C-19.75613281 20.36355469 -18.89117187 19.69195312 -18 19 C-13.94163805 15.98501198 -13.94163805 15.98501198 -11 12 C-10.34 12 -9.68 12 -9 12 C-9 11.34 -9 10.68 -9 10 C-8.34 10 -7.68 10 -7 10 C-6.67 9.01 -6.34 8.02 -6 7 C-5.34 7 -4.68 7 -4 7 C-3.71125 6.401875 -3.4225 5.80375 -3.125 5.1875 C-2 3 -2 3 0 0 Z " fill="#EA4B88" transform="translate(439,97)"/>
<path d="M0 0 C5.01553023 15.04659069 -9.80373569 39.65131983 -16.25 52.5625 C-17.49656653 55.04342018 -18.74779304 57.52191754 -20 60 C-20.33 60.66 -20.66 61.32 -21 62 C-21.66 62 -22.32 62 -23 62 C-23.09023438 62.55300781 -23.18046875 63.10601562 -23.2734375 63.67578125 C-24.20953667 66.67029203 -25.74764394 68.67590202 -27.625 71.1875 C-28.27726562 72.06792969 -28.92953125 72.94835937 -29.6015625 73.85546875 C-30.39304687 74.89316406 -31.18453125 75.93085938 -32 77 C-32.49822266 77.6710376 -32.99644531 78.3420752 -33.50976562 79.03344727 C-38.00627973 84.98820226 -42.95957455 90.30760567 -48.25 95.5625 C-49.50200195 96.80930542 -49.50200195 96.80930542 -50.77929688 98.08129883 C-65.96453491 113 -65.96453491 113 -72 113 C-72.24234375 111.76507813 -72.4846875 110.53015625 -72.734375 109.2578125 C-78.15970052 80.38472444 -78.15970052 80.38472444 -86.3046875 52.2109375 C-87.11204172 49.64373251 -87.64107154 47.0728069 -88.1875 44.4375 C-90.125279 35.67086344 -93.16505665 27.25633931 -96.0625 18.76953125 C-97.5985324 14.26245408 -99.00555562 9.73325023 -100.31958008 5.15673828 C-100.98473285 3.04839254 -101.78461311 1.07899107 -102.6875 -0.9375 C-104 -4 -104 -4 -104 -7 C-101.08876237 -7.97041254 -98.73995766 -8.28311609 -95.6953125 -8.53515625 C-94.1184668 -8.66615723 -94.1184668 -8.66615723 -92.50976562 -8.79980469 C-63.56489321 -11.04624747 -27.20026018 -12.0635218 0 0 Z " fill="#E94B88" transform="translate(475,232)"/>
<path d="M0 0 C4.52134218 3.71754802 8.77415761 7.64047364 12.9375 11.75 C13.43419189 12.23380127 13.93088379 12.71760254 14.44262695 13.21606445 C15.66847329 14.43848364 16.83934827 15.71551743 18 17 C18 17.66 18 18.32 18 19 C18.66 19 19.32 19 20 19 C20 19.66 20 20.32 20 21 C20.66 21 21.32 21 22 21 C22.66 22.32 23.32 23.64 24 25 C23.34 25.66 22.68 26.32 22 27 C21.01 27 20.02 27 19 27 C18 24 18 24 19 21 C18.34 21 17.68 21 17 21 C16.67 21.66 16.34 22.32 16 23 C15.34 22.67 14.68 22.34 14 22 C14.33 20.35 14.66 18.7 15 17 C14.01 16.67 13.02 16.34 12 16 C11.54625 15.236875 11.0925 14.47375 10.625 13.6875 C8.79178179 10.65563911 6.81648023 9.11236018 4 7 C1.39107389 4.76377762 0.73506023 3.32138325 0 0 Z " fill="#B53063" transform="translate(442,52)"/>
<path d="M0 0 C0.66 0.33 1.32 0.66 2 1 C-1.75 4 -1.75 4 -4 4 C-3.67 5.65 -3.34 7.3 -3 9 C-7.53701494 10.45184478 -11.18061476 11.23509196 -16 11 C-12.55975781 8.17386297 -9.04877023 5.60868467 -5.3125 3.1875 C-4.35988281 2.56230469 -3.40726563 1.93710937 -2.42578125 1.29296875 C-1.62527344 0.86628906 -0.82476562 0.43960937 0 0 Z " fill="#B53266" transform="translate(200,29)"/>
<path d="M0 0 C0 0.66 0 1.32 0 2 C-5.6550189 4.45406481 -10.52566093 5.42907766 -16.6796875 5.7890625 C-19.02382936 5.86008162 -19.02382936 5.86008162 -21 7 C-22.67654729 6.72057545 -24.34608154 6.39171753 -26 6 C-26 5.67 -26 5.34 -26 5 C-25.40461426 4.88406494 -24.80922852 4.76812988 -24.19580078 4.64868164 C-21.50493604 4.12296202 -18.8149682 3.59278705 -16.125 3.0625 C-15.18785156 2.88009766 -14.25070312 2.69769531 -13.28515625 2.50976562 C-12.38925781 2.33251953 -11.49335938 2.15527344 -10.5703125 1.97265625 C-9.74289551 1.81031494 -8.91547852 1.64797363 -8.06298828 1.48071289 C-1.70848146 0 -1.70848146 0 0 0 Z " fill="#AD3863" transform="translate(283,0)"/>
<path d="M0 0 C4.95 0 9.9 0 15 0 C10.27368984 4.72631016 1.19763617 4.10158852 -5.2043457 4.13623047 C-8.1370632 4.1201301 -11.06815675 4.07209451 -14 4 C-14 3.67 -14 3.34 -14 3 C-9.38 2.67 -4.76 2.34 0 2 C0 1.34 0 0.68 0 0 Z " fill="#AB3965" transform="translate(334,403)"/>
<path d="M0 0 C0.66 0 1.32 0 2 0 C2.12375 1.175625 2.2475 2.35125 2.375 3.5625 C2.85853052 7.51483644 3.87617276 11.1789874 5 15 C5 15.99 5 16.98 5 18 C4.34 18.33 3.68 18.66 3 19 C0.99134292 12.49577707 -0.38614349 6.8218683 0 0 Z " fill="#B33665" transform="translate(105,237)"/>
<path d="M0 0 C-0.33 0.99 -0.66 1.98 -1 3 C-1.99 3 -2.98 3 -4 3 C-4.309375 3.61875 -4.61875 4.2375 -4.9375 4.875 C-6.69763633 8.39527266 -7.48468666 9.24234333 -11 11 C-11.33 11.66 -11.66 12.32 -12 13 C-12.99 13 -13.98 13 -15 13 C-14.1875 11.0625 -14.1875 11.0625 -13 9 C-12.01 8.67 -11.02 8.34 -10 8 C-10 7.34 -10 6.68 -10 6 C-8.3203125 4.4921875 -8.3203125 4.4921875 -6.125 2.875 C-5.40570313 2.33617187 -4.68640625 1.79734375 -3.9453125 1.2421875 C-2 0 -2 0 0 0 Z " fill="#B53566" transform="translate(183,42)"/>
<path d="M0 0 C1.4589426 0.47730838 2.91713496 0.95691042 4.375 1.4375 C5.18710937 1.70433594 5.99921875 1.97117187 6.8359375 2.24609375 C9 3 9 3 11 4 C10.67 5.32 10.34 6.64 10 8 C6.5625 7.1875 6.5625 7.1875 3 6 C2.67 5.01 2.34 4.02 2 3 C1.34 2.67 0.68 2.34 0 2 C0 1.34 0 0.68 0 0 Z " fill="#BC3065" transform="translate(383,15)"/>
<path d="M0 0 C0.33 0 0.66 0 1 0 C2.51537186 7.7527507 3.27990605 15.10042938 3 23 C2.67 23 2.34 23 2 23 C1.86722656 22.14535156 1.73445313 21.29070312 1.59765625 20.41015625 C1.42105469 19.30542969 1.24445313 18.20070312 1.0625 17.0625 C0.88847656 15.96035156 0.71445312 14.85820312 0.53515625 13.72265625 C0.28154864 11.09573071 0.28154864 11.09573071 -1 10 C-1.0979057 8.50261876 -1.12974864 7.00057108 -1.125 5.5 C-1.12757813 4.6853125 -1.13015625 3.870625 -1.1328125 3.03125 C-1 1 -1 1 0 0 Z " fill="#AF3C68" transform="translate(506,163)"/>
<path d="M0 0 C0 3.93974955 -1.47789475 5.82936093 -3.5 9.1875 C-4.47453125 10.81751953 -4.47453125 10.81751953 -5.46875 12.48046875 C-6.22671875 13.72763672 -6.22671875 13.72763672 -7 15 C-7.33 14.01 -7.66 13.02 -8 12 C-7.34 11.01 -6.68 10.02 -6 9 C-5.83333333 6.5 -5.83333333 6.5 -6 4 C-6 3.01 -6 2.02 -6 1 C-4.7934375 1.0309375 -4.7934375 1.0309375 -3.5625 1.0625 C-1.06645115 1.29633621 -1.06645115 1.29633621 0 0 Z " fill="#AE2D5F" transform="translate(482,305)"/>
<path d="M0 0 C-0.59619955 4.86896303 -1.56976822 9.32790951 -3 14 C-3.33 14 -3.66 14 -4 14 C-4.33 10.04 -4.66 6.08 -5 2 C-2 0 -2 0 0 0 Z " fill="#B53565" transform="translate(503,256)"/>
<path d="M0 0 C0.625 1.8125 0.625 1.8125 1 4 C0.01 5.485 0.01 5.485 -1 7 C-1.24055468 9.05709596 -1.24055468 9.05709596 -1.125 11.1875 C-1.08375 12.445625 -1.0425 13.70375 -1 15 C-1.99 15 -2.98 15 -4 15 C-4 15.66 -4 16.32 -4 17 C-4.66 16.67 -5.32 16.34 -6 16 C-4.43551329 10.3856009 -2.83604813 5.13189662 0 0 Z " fill="#B53E6E" transform="translate(117,126)"/>
<path d="M0 0 C1 2 2 4 3 6 C1.02 6.66 -0.96 7.32 -3 8 C-3 9.32 -3 10.64 -3 12 C-3.99 12 -4.98 12 -6 12 C-4.43358249 7.69235185 -2.31663844 3.93828536 0 0 Z " fill="#B13062" transform="translate(137,88)"/>
<path d="M0 0 C1.62723299 0.45034123 3.25173664 0.91055354 4.875 1.375 C5.77992188 1.63023438 6.68484375 1.88546875 7.6171875 2.1484375 C10 3 10 3 12 5 C8.64035843 6.11988052 6.41909335 5.71980913 3 5 C2.01 5.495 2.01 5.495 1 6 C0.67 4.02 0.34 2.04 0 0 Z " fill="#BC4371" transform="translate(362,7)"/>
<path d="M0 0 C2.31 0 4.62 0 7 0 C0.84965831 7.48291572 0.84965831 7.48291572 -3 10 C-3 9.01 -3 8.02 -3 7 C-2.34 7 -1.68 7 -1 7 C-0.67 4.69 -0.34 2.38 0 0 Z " fill="#AF2D5E" transform="translate(445,346)"/>
<path d="M0 0 C0.99 0.33 1.98 0.66 3 1 C3.5859375 2.77734375 3.5859375 2.77734375 4 5 C4.80546256 7.30075195 5.63546046 9.59095436 6.4765625 11.87890625 C7 14 7 14 6 17 C5.18167278 15.10667466 4.37057732 13.21022267 3.5625 11.3125 C3.11003906 10.25675781 2.65757813 9.20101563 2.19140625 8.11328125 C1.14552545 5.38027471 0.46479252 2.87957663 0 0 Z " fill="#B13867" transform="translate(113,270)"/>
<path d="M0 0 C1.32 0.99 2.64 1.98 4 3 C0.04 4.32 -3.92 5.64 -8 7 C-8 6.01 -8 5.02 -8 4 C-7.34 4 -6.68 4 -6 4 C-6 3.34 -6 2.68 -6 2 C-3.03 2.495 -3.03 2.495 0 3 C0 2.01 0 1.02 0 0 Z " fill="#B73A68" transform="translate(370,394)"/>
<path d="M0 0 C2.0625 1.75 2.0625 1.75 4 4 C3.81367553 7.07435378 2.75085936 8.37371096 1 11 C0.34 11 -0.32 11 -1 11 C-1.125 3.375 -1.125 3.375 0 0 Z " fill="#B22C5F" transform="translate(106,161)"/>
<path d="M0 0 C5.57142857 5.14285714 5.57142857 5.14285714 6 9 C5.34 9 4.68 9 4 9 C3.34 8.34 2.68 7.68 2 7 C1.01 6.67 0.02 6.34 -1 6 C-0.67 4.02 -0.34 2.04 0 0 Z " fill="#B93465" transform="translate(483,104)"/>
<path d="M0 0 C1.65 0 3.3 0 5 0 C1.37464179 3.17218843 -2.51150278 4.42902597 -7 6 C-7 4.68 -7 3.36 -7 2 C-4.69 2 -2.38 2 0 2 C0 1.34 0 0.68 0 0 Z " fill="#B13262" transform="translate(395,385)"/>
<path d="M0 0 C0.99 0 1.98 0 3 0 C3 0.66 3 1.32 3 2 C3.53625 2.0825 4.0725 2.165 4.625 2.25 C7.8352431 3.26376098 10.26292392 5.07160549 13 7 C12.01 7.495 12.01 7.495 11 8 C10.01 7.67 9.02 7.34 8 7 C7.01 7.495 7.01 7.495 6 8 C6 6.68 6 5.36 6 4 C4.68 3.67 3.36 3.34 2 3 C2 2.34 2 1.68 2 1 C1.34 0.67 0.68 0.34 0 0 Z " fill="#B5436F" transform="translate(410,29)"/>
<path d="M0 0 C0.66 0 1.32 0 2 0 C2 0.66 2 1.32 2 2 C2.66 2.33 3.32 2.66 4 3 C3.04956626 4.33897583 2.08940853 5.67105427 1.125 7 C0.59132813 7.7425 0.05765625 8.485 -0.4921875 9.25 C-0.98976563 9.8275 -1.48734375 10.405 -2 11 C-2.66 11 -3.32 11 -4 11 C-4 10.01 -4 9.02 -4 8 C-3.01 7.34 -2.02 6.68 -1 6 C-0.26656572 2.93443402 -0.26656572 2.93443402 0 0 Z " fill="#B03463" transform="translate(464,326)"/>
<path d="M0 0 C1.98 0 3.96 0 6 0 C6.6875 1.75 6.6875 1.75 7 4 C5.5625 6.25 5.5625 6.25 4 8 C3.01 7.34 2.02 6.68 1 6 C1.99 4.68 2.98 3.36 4 2 C2.68 1.34 1.36 0.68 0 0 Z " fill="#CD3974" transform="translate(289,0)"/>
<path d="M0 0 C1.23593891 3.70781672 0.5678132 4.67510253 -0.9375 8.1875 C-1.31777344 9.08855469 -1.69804687 9.98960937 -2.08984375 10.91796875 C-2.54037109 11.94857422 -2.54037109 11.94857422 -3 13 C-3.33 13 -3.66 13 -4 13 C-4.33 10.69 -4.66 8.38 -5 6 C-4.34 6 -3.68 6 -3 6 C-2.67 4.68 -2.34 3.36 -2 2 C-1.34 2 -0.68 2 0 2 C0 1.34 0 0.68 0 0 Z " fill="#AC2D5D" transform="translate(497,272)"/>
<path d="M0 0 C0 0.66 0 1.32 0 2 C-1.26839526 2.50615298 -2.53983102 3.00469099 -3.8125 3.5 C-4.87404297 3.91765625 -4.87404297 3.91765625 -5.95703125 4.34375 C-8 5 -8 5 -11 5 C-10.67 4.01 -10.34 3.02 -10 2 C-6.3962102 0.47839986 -3.94779314 0 0 0 Z " fill="#BF557F" transform="translate(283,0)"/>
<path d="M0 0 C0.99 0 1.98 0 3 0 C3.33 1.32 3.66 2.64 4 4 C1.03 3.67 -1.94 3.34 -5 3 C-3.68 2.34 -2.36 1.68 -1 1 C-0.67 0.67 -0.34 0.34 0 0 Z " fill="#B5265C" transform="translate(289,403)"/>
<path d="M0 0 C0.99 0.33 1.98 0.66 3 1 C3.33 1.99 3.66 2.98 4 4 C3.01 5.485 3.01 5.485 2 7 C1.01 7 0.02 7 -1 7 C-0.67 4.69 -0.34 2.38 0 0 Z " fill="#B7265D" transform="translate(467,321)"/>
<path d="M0 0 C0.66666667 1.33333333 1.33333333 2.66666667 2 4 C1.0625 6.125 1.0625 6.125 0 8 C-1.98 4.535 -1.98 4.535 -4 1 C-2 0 -2 0 0 0 Z " fill="#B43264" transform="translate(140,316)"/>
<path d="M0 0 C2.97 0.495 2.97 0.495 6 1 C4.3545622 2.68762851 2.68711423 4.3540349 1 6 C0.67 6 0.34 6 0 6 C0 4.02 0 2.04 0 0 Z " fill="#B32D62" transform="translate(426,363)"/>
<path d="M0 0 C2.375 0.25 2.375 0.25 5 1 C6.3125 3.0625 6.3125 3.0625 7 5 C4.36 4.01 1.72 3.02 -1 2 C-0.67 1.34 -0.34 0.68 0 0 Z " fill="#B22C5E" transform="translate(426,41)"/>
<path d="M0 0 C0.66 2.64 1.32 5.28 2 8 C0.02 6.35 -1.96 4.7 -4 3 C-1.125 0 -1.125 0 0 0 Z " fill="#B12C5E" transform="translate(160,340)"/>
<path d="M0 0 C1.125 1.6875 1.125 1.6875 2 4 C1.125 6.75 1.125 6.75 0 9 C-0.66 8.01 -1.32 7.02 -2 6 C-1.125 2.8125 -1.125 2.8125 0 0 Z " fill="#B62A5F" transform="translate(484,296)"/>
</svg>
